<svg xmlns="http://www.w3.org/2000/svg" viewBox="0 0 81.52 29.9"><path d="M39.5 29.59a1.7 1.7 0 0 0-1.73-.5 6.64 6.64 0 0 1-1.05.12c-1.47-.17-1.81-1.3-1.72-4.29s-1.77-4-1.77-4c4.08.25 5.09 2.61 5.39 3.11s.25 1.56.88 1.77a.43.43 0 0 0 .63-.42c-1.6-8.84-7.07-8.67-8.54-8.67s-1.34-.25-1.43-.29a4.41 4.41 0 0 1 3.37-2.65 6.47 6.47 0 0 0-8-.8 3.54 3.54 0 0 0-1.39 4.5c-4 .67-3.58-4.67-3.58-4.67-1.34.93-2.06 1.35-3 4.54s.25 4 .25 4a6.08 6.08 0 0 1 3.45-1.94c1-.17 1.39 0 2.52 1.64s2.78 2.91 4.08 2.44 1.43-4.12 1.43-4.12c.72 1 2.48 2.57.34 5.43S24.27 27.7 21 27.07s-4.51-3.54-5.18-6.65 1.81-6.31 1.81-6.31c-1.81.42-2.78 1.6-4 2.65s-.3 3.2-.38 3.91-1.68 2-2.44 2.15-1 .88-1.77 1.14-.8-.22-1.3-.89-.63-.21-1.18-.38-.17-1 .21-1.38.63-.38.17-1.6.5-2.48 1.56-3 3 0 4-.5a10.67 10.67 0 0 0 2.53-2.57 33.3 33.3 0 0 1-9.3 1.81C-.92 15.12.05 8.94.05 8.94c1.6 1.18 1.55 1.89 3.19 1.47S4.93 9.36 6 8.65s3.85-1.39 4.73.35 0 4.42 0 4.42a23.23 23.23 0 0 0 3.83-1.09 19 19 0 0 1 4.08-.72c-2.78-4.92.71-5.89.71-5.89.09 2.86 2 3.2 4.08 3.79s5.68-.21 9.68 2.31 6.73 8.2 6.73 8.37a6 6 0 0 0 .16-2.63 5.93 5.93 0 0 0-1.61-2.79h1.87l.1-3.79s-2 1.7-3.12 1.31-2.73-3.42-5.08-3.66a6 6 0 0 1 6.14-2.5s-1.38-1.34-1.1-2.23A1.47 1.47 0 0 1 39 2.65S39.17 0 40.76 0s1.74 2.65 1.74 2.65a1.47 1.47 0 0 1 1.82 1.25c.28.89-1.1 2.23-1.1 2.23a6 6 0 0 1 6.12 2.52c-2.35.24-3.92 3.28-5.08 3.66S41.14 11 41.14 11l.1 3.79h1.88a5.86 5.86 0 0 0-1.62 2.79 5.92 5.92 0 0 0 .19 2.61c0-.17 2.73-5.85 6.73-8.37s7.58-1.74 9.67-2.33 4-.93 4.08-3.79c0 0 3.49 1 .71 5.89a19 19 0 0 1 4.08.72 23.51 23.51 0 0 0 3.83 1.09s-.88-2.69 0-4.42 3.62-1.05 4.71-.33 1.14 1.34 2.78 1.76 1.59-.29 3.19-1.47c0 0 1 6.18-5.8 6.52a33.3 33.3 0 0 1-9.3-1.81 10.67 10.67 0 0 0 2.53 2.57c1 .46 3 0 4 .5s2 1.77 1.55 3-.21 1.22.17 1.6.76 1.22.21 1.38-.67-.29-1.18.38-.54 1.14-1.3.89-1-1-1.77-1.14-2.35-1.43-2.44-2.15.8-2.86-.38-3.91-2.14-2.23-3.95-2.65c0 0 2.48 3.2 1.81 6.31s-1.94 6-5.17 6.65-6.52.59-8.67-2.27-.38-4.42.34-5.43c0 0 .12 3.66 1.43 4.12s2.94-.8 4.08-2.44 1.55-1.81 2.52-1.64a6.08 6.08 0 0 1 3.45 1.94s1.18-.76.25-4-1.64-3.61-3-4.54c0 0 .46 5.34-3.58 4.67A3.53 3.53 0 0 0 55.94 13a6.47 6.47 0 0 0-7.95.8 4.41 4.41 0 0 1 3.37 2.65c-.08 0 0 .29-1.43.29s-6.94-.17-8.54 8.67a.43.43 0 0 0 .63.42c.63-.21.59-1.26.89-1.77s1.3-2.86 5.38-3.11c0 0-1.85 1-1.77 4s-.25 4.05-1.72 4.26a6.64 6.64 0 0 1-1-.12 1.7 1.7 0 0 0-1.73.5 1.15 1.15 0 0 1-1.26.21 1.15 1.15 0 0 1-1.26-.21z" fill-rule="evenodd"/></svg>