<svg id="Lager_1" data-name="Lager 1" xmlns="http://www.w3.org/2000/svg" viewBox="0 0 43.24 30.79"><defs><style>.cls-1{fill:#1f1a17;}</style></defs><title>ornament2-small</title><path class="cls-1" d="M37.74,30v.61a2,2,0,0,1-.67.15,8.11,8.11,0,0,1-.86.05,10.7,10.7,0,0,1-8.06-3.16,10.47,10.47,0,0,1-3.06-7.55,11,11,0,0,1,2.14-6.83,8.66,8.66,0,0,1,7.45-3.46,8.43,8.43,0,0,1,6.22,2.34,7.91,7.91,0,0,1,2.34,5.81,6.8,6.8,0,0,1-6.83,7,5.5,5.5,0,0,1-4.49-1.73A3.91,3.91,0,0,1,31,20.7q0-3.37,2.85-3.37a2.07,2.07,0,0,1,2.35,2.35,1.67,1.67,0,0,1-.56,1.17,3.87,3.87,0,0,1-1,.76,1.86,1.86,0,0,0,1,.77,3.79,3.79,0,0,0,1.38.25,4.13,4.13,0,0,0,2.8-1.12,4.29,4.29,0,0,0,1.28-3.37,5,5,0,0,0-2.45-4.69,7.71,7.71,0,0,0-4-1,6.93,6.93,0,0,0-4.59,1.63,7.41,7.41,0,0,0-2.45,6,8.39,8.39,0,0,0,4,7.55A21.41,21.41,0,0,0,37.74,30ZM23.15,19.47v1a22.53,22.53,0,0,0,.26,2.86A11,11,0,0,0,24,25.9c-.41.54-.83,1.15-1.28,1.83a12.4,12.4,0,0,0-1.07,2,6.6,6.6,0,0,0-1-2.14,13,13,0,0,0-1.33-1.73,11.6,11.6,0,0,0,.61-2.6,25.3,25.3,0,0,0,.41-2.81V19.27a11.8,11.8,0,0,0-3.37-8.57,15.53,15.53,0,0,0-5.4-3.47c.88-.47,1.63-.91,2.24-1.32.2-.14.82-.61,1.84-1.43a12.05,12.05,0,0,1,2.49,2.7,25.44,25.44,0,0,1,2,3.52l.21-1.52a10.44,10.44,0,0,0-.57-3.42,10,10,0,0,0-1.58-3L20,1.53A9.23,9.23,0,0,0,21.72,0a6.4,6.4,0,0,0,1.82,1.58c.91.58,1.48,1,1.76,1.17a10.93,10.93,0,0,0-1.53,3.06,10.43,10.43,0,0,0-.61,3.37V10.7a37.54,37.54,0,0,1,1.93-3.26,12.22,12.22,0,0,1,3-3,12.34,12.34,0,0,0,1.79,1.43A11.57,11.57,0,0,0,31.92,7a12.56,12.56,0,0,0-5.2,3.57,12.71,12.71,0,0,0-3.57,8.87ZM5.51,30.79v-.61a25.75,25.75,0,0,0,6.12-2.27,8.67,8.67,0,0,0,4.18-7.74c0-2.62-.75-4.55-2.25-5.83a7.52,7.52,0,0,0-5-1.91,7.61,7.61,0,0,0-3.88.94,5,5,0,0,0-2.55,4.69A4.86,4.86,0,0,0,3,21a3.87,3.87,0,0,0,3.26,1.67,3.37,3.37,0,0,0,2.55-.86A4.13,4.13,0,0,1,7.65,21,1.58,1.58,0,0,1,7,19.78c0-1.63.85-2.45,2.55-2.45s2.65,1.06,2.65,3.16a4,4,0,0,1-1.48,3.32A6.13,6.13,0,0,1,6.83,25a6.18,6.18,0,0,1-5.5-2.75A7.4,7.4,0,0,1,0,17.94a8,8,0,0,1,2.35-5.71A8.17,8.17,0,0,1,8.57,9.79,8.83,8.83,0,0,1,16,13.25a11.09,11.09,0,0,1,2.14,6.84,10.55,10.55,0,0,1-3,7.6A10.74,10.74,0,0,1,7,30.79Z" transform="translate(0)"/></svg>